<?xml version="1.0" encoding="UTF-8" standalone="no"?>
<!-- Generator: Adobe Illustrator 15.0.0, SVG Export Plug-In . SVG Version: 6.00 Build 0)  -->

<svg
   xmlns:dc="http://purl.org/dc/elements/1.1/"
   xmlns:cc="http://creativecommons.org/ns#"
   xmlns:rdf="http://www.w3.org/1999/02/22-rdf-syntax-ns#"
   xmlns:svg="http://www.w3.org/2000/svg"
   xmlns="http://www.w3.org/2000/svg"
   xmlns:sodipodi="http://sodipodi.sourceforge.net/DTD/sodipodi-0.dtd"
   xmlns:inkscape="http://www.inkscape.org/namespaces/inkscape"
   version="1.1"
   id="Layer_2"
   x="0px"
   y="0px"
   width="331.5"
   height="408.75"
   viewBox="0 0 331.5 408.75"
   enable-background="new 0 0 1436.25 483"
   xml:space="preserve"
   inkscape:version="0.48.2 r9819"
   sodipodi:docname="logohogent.svg"><metadata
   id="metadata121"><rdf:RDF><cc:Work
       rdf:about=""><dc:format>image/svg+xml</dc:format><dc:type
         rdf:resource="http://purl.org/dc/dcmitype/StillImage" /></cc:Work></rdf:RDF></metadata><defs
   id="defs119" /><sodipodi:namedview
   pagecolor="#ffffff"
   bordercolor="#666666"
   borderopacity="1"
   objecttolerance="10"
   gridtolerance="10"
   guidetolerance="10"
   inkscape:pageopacity="0"
   inkscape:pageshadow="2"
   inkscape:window-width="1680"
   inkscape:window-height="967"
   id="namedview117"
   showgrid="false"
   inkscape:zoom="0.41079199"
   inkscape:cx="-996.71972"
   inkscape:cy="673.19591"
   inkscape:window-x="0"
   inkscape:window-y="30"
   inkscape:window-maximized="1"
   inkscape:current-layer="Layer_2"
   fit-margin-top="0"
   fit-margin-left="0"
   fit-margin-right="0"
   fit-margin-bottom="0" />



<g
   id="g105"
   transform="translate(-820.25,0)">
	<path
   clip-rule="evenodd"
   d="M 903.5,0 C 939.75,0 976,0 1012.25,0 1002.994,56.744 993.916,113.666 984.5,170.25 952.455,158.045 921.875,144.375 881,141 887.663,93.163 895.966,46.966 903.5,0 z"
   id="path107"
   inkscape:connector-curvature="0"
   style="fill:#00569c;fill-rule:evenodd" />
	<path
   clip-rule="evenodd"
   d="m 1033.25,0 c 36.5,0 73,0 109.5,0 -9.86,62.139 -20.204,123.796 -30,186 -31.882,14.756 -81.07,6.881 -108,-6.75 9.112,-60.139 19.825,-118.674 28.5,-179.25 z"
   id="path109"
   inkscape:connector-curvature="0"
   style="fill:#aec6db;fill-rule:evenodd" />
	<path
   clip-rule="evenodd"
   d="m 1146.5,186.75 c 1.556,3.445 3.788,6.211 5.25,9.75 -110.416,77.81 -209.965,-60.987 -327,-21 -0.84,-4.41 -4.068,-6.432 -4.5,-11.25 116.777,-44.216 215.962,94.307 326.25,22.5 z"
   id="path111"
   inkscape:connector-curvature="0"
   style="fill-rule:evenodd" />
	<path
   clip-rule="evenodd"
   d="m 874.25,183 c 40.802,2.949 72.872,14.628 103.5,27.75 -10.352,66.399 -20.957,132.542 -32.25,198 -36,0 -72,0 -108,0 11.571,-75.93 23.633,-151.366 36.75,-225.75 z"
   id="path113"
   inkscape:connector-curvature="0"
   style="fill:#00569c;fill-rule:evenodd" />
	<path
   clip-rule="evenodd"
   d="m 1105.25,228 c -7.604,59.396 -19.177,121.322 -29.25,180.75 -36,0 -72,0 -108,0 8.439,-61.813 20.396,-126.602 30,-189.75 29.446,11.58 73.47,22.666 107.25,9 z"
   id="path115"
   inkscape:connector-curvature="0"
   style="fill:#aec6db;fill-rule:evenodd" />
</g>
</svg>