<?xml version="1.0" encoding="UTF-8"?>
<!-- Generator: Adobe Illustrator 15.0.0, SVG Export Plug-In . SVG Version: 6.00 Build 0)  -->
<!DOCTYPE svg PUBLIC "-//W3C//DTD SVG 1.1//EN" "http://www.w3.org/Graphics/SVG/1.1/DTD/svg11.dtd">
<svg version="1.1" id="Layer_2" xmlns="http://www.w3.org/2000/svg" xmlns:xlink="http://www.w3.org/1999/xlink" x="0px" y="0px" width="1436.25px" height="483px" viewBox="0 0 1436.25 483" enable-background="new 0 0 1436.25 483" xml:space="preserve">
<g>
	<path d="M67.184,408.13h-9.957v-35.909H9.991v35.909H0.034v-78.559h9.957v33.701h47.236v-33.701h9.957V408.13z"/>
	<path d="M166.931,368.851c0,7.786-1.728,14.798-5.182,21.034c-3.455,6.237-8.243,11.099-14.362,14.585   c-6.12,3.486-12.99,5.229-20.609,5.229c-7.581,0-14.451-1.742-20.61-5.229s-10.976-8.367-14.45-14.643s-5.212-13.268-5.212-20.977   c0-7.67,1.727-14.613,5.182-20.831c3.454-6.217,8.271-11.078,14.45-14.584s13.06-5.259,20.64-5.259   c5.804,0,11.143,0.988,16.02,2.963c4.876,1.977,9.141,4.814,12.793,8.513c3.652,3.7,6.456,8.039,8.409,13.016   C165.953,357.646,166.931,363.04,166.931,368.851z M156.026,368.88c0-5.66-1.314-10.991-3.941-15.993   c-2.628-5.001-6.204-8.946-10.728-11.835c-4.524-2.889-9.394-4.334-14.609-4.334c-5.215,0-10.096,1.445-14.639,4.334   c-4.544,2.889-8.13,6.834-10.757,11.835c-2.628,5.002-3.941,10.333-3.941,15.993c0,5.699,1.313,11.05,3.941,16.052   c2.627,5.001,6.213,8.956,10.757,11.864c4.543,2.908,9.424,4.361,14.639,4.361c5.216,0,10.085-1.443,14.609-4.332   c4.524-2.89,8.1-6.844,10.728-11.865C154.712,379.939,156.026,374.579,156.026,368.88z"/>
	<path d="M247.832,405.168c-1.66,0.619-3.616,1.259-5.868,1.916c-5.854,1.743-12.577,2.614-20.17,2.614   c-7.831,0-15.028-1.781-21.593-5.346c-6.566-3.563-11.737-8.502-15.513-14.816c-3.778-6.313-5.666-13.248-5.666-20.802   c0-7.592,1.838-14.478,5.517-20.656c3.677-6.179,8.759-11.021,15.245-14.526c6.485-3.506,13.702-5.259,21.651-5.259   c6.485,0,12.042,0.604,16.669,1.813c2.768,0.74,6.011,2.125,9.729,4.152l-3.793,8.096c-1.106-0.581-2.529-1.279-4.267-2.095   c-2.213-0.968-4.831-1.732-7.853-2.293c-3.022-0.562-6.174-0.842-9.453-0.842c-5.611,0-10.372,0.794-14.284,2.381   s-7.408,4.121-10.49,7.604c-1.66,1.896-3.082,3.986-4.267,6.27c-1.186,2.283-2.084,4.635-2.697,7.054   c-0.613,2.419-0.918,4.963-0.918,7.634c0,6.192,1.491,11.785,4.475,16.777c2.983,4.993,7.121,8.911,12.417,11.756   c5.294,2.845,11.261,4.266,17.899,4.266c3.438,0,7.862-0.561,13.276-1.683V373.06h9.957V405.168z"/>
	<path d="M318.3,408.13h-46.11v-78.559h45.043v8.309h-35.086v26.09h29.041v8.309h-29.041v27.658H318.3V408.13z"/>
	<path d="M382.665,334.844l-4.623,8.149c-3.556-2.053-6.342-3.409-8.357-4.068c-3.636-1.122-7.31-1.684-11.023-1.684   c-3.082,0-5.77,0.465-8.061,1.394c-2.292,0.93-4.08,2.236-5.364,3.92c-1.284,1.683-1.926,3.608-1.926,5.775   c0,1.936,0.523,3.668,1.571,5.197c1.046,1.528,2.983,3.213,5.808,5.052c2.825,1.838,6.964,4.17,12.417,6.995   c5.729,2.98,9.937,5.632,12.624,7.954c1.936,1.549,3.457,3.6,4.563,6.154c1.106,2.555,1.66,5.264,1.66,8.128   c0,4.412-1.067,8.273-3.201,11.583c-2.133,3.31-5.196,5.854-9.186,7.635c-3.992,1.779-8.653,2.67-13.987,2.67   c-5.295,0-10.234-0.871-14.817-2.614c-1.778-0.774-3.31-1.52-4.593-2.237c-1.285-0.716-3.191-1.927-5.719-3.631l5.097-7.729   c3.872,2.557,6.954,4.262,9.246,5.113c3.556,1.356,7.408,2.033,11.557,2.033c4.741,0,8.455-1.045,11.142-3.137   c2.687-2.092,4.03-5.017,4.03-8.774c0-2.324-0.415-4.184-1.245-5.578c-1.383-2.518-3.655-4.668-6.816-6.45   c-1.185-0.619-2.747-1.433-4.682-2.439c-1.936-1.008-4.821-2.537-8.653-4.591c-6.006-3.138-10.363-6.353-13.068-9.646   c-2.707-3.292-4.06-6.934-4.06-10.924c0-4.105,1.106-7.737,3.319-10.895c2.212-3.157,5.324-5.598,9.335-7.321   c4.01-1.724,8.624-2.586,13.839-2.586c5.057,0,9.542,0.644,13.454,1.931C375.631,331.081,378.872,332.621,382.665,334.844z"/>
	<path d="M459.891,335.722l-4.979,7.389c-3.082-2.131-6.164-3.661-9.246-4.591s-6.56-1.395-10.431-1.395   c-5.571,0-10.57,1.316-14.995,3.947c-4.426,2.632-7.883,6.28-10.372,10.943c-2.489,4.664-3.734,9.976-3.734,15.936   c0,6.502,1.284,12.229,3.853,17.184c2.568,4.953,6.213,8.775,10.935,11.465c4.721,2.69,10.144,4.034,16.269,4.034   c6.361,0,12.506-1.239,18.433-3.719l2.785,7.67c-4.312,1.859-7.91,3.119-10.797,3.777c-3.796,0.891-7.475,1.336-11.034,1.336   c-5.972,0-11.49-0.997-16.551-2.992c-5.063-1.994-9.453-4.842-13.17-8.541s-6.584-8.086-8.602-13.161   c-2.017-5.074-3.025-10.575-3.025-16.502c0-5.732,0.999-11.03,2.996-15.892c1.997-4.861,4.854-9.142,8.571-12.842   c3.717-3.698,8.048-6.556,12.992-8.57c4.943-2.014,10.204-3.021,15.78-3.021c5.457,0,10.48,0.878,15.068,2.632   C453.286,331.667,456.371,333.305,459.891,335.722z"/>
	<path d="M543.043,408.13h-9.957v-35.909H485.85v35.909h-9.957v-78.559h9.957v33.701h47.236v-33.701h9.957V408.13z"/>
	<path d="M642.791,368.851c0,7.786-1.728,14.798-5.182,21.034c-3.455,6.237-8.243,11.099-14.362,14.585   c-6.12,3.486-12.99,5.229-20.609,5.229c-7.581,0-14.451-1.742-20.61-5.229s-10.976-8.367-14.45-14.643s-5.212-13.268-5.212-20.977   c0-7.67,1.727-14.613,5.182-20.831c3.454-6.217,8.271-11.078,14.45-14.584s13.06-5.259,20.64-5.259   c5.804,0,11.143,0.988,16.02,2.963c4.876,1.977,9.141,4.814,12.793,8.513c3.652,3.7,6.456,8.039,8.409,13.016   C641.813,357.646,642.791,363.04,642.791,368.851z M631.885,368.88c0-5.66-1.314-10.991-3.941-15.993   c-2.628-5.001-6.204-8.946-10.728-11.835c-4.524-2.889-9.394-4.334-14.609-4.334c-5.215,0-10.096,1.445-14.639,4.334   c-4.544,2.889-8.13,6.834-10.757,11.835c-2.628,5.002-3.941,10.333-3.941,15.993c0,5.699,1.313,11.05,3.941,16.052   c2.627,5.001,6.213,8.956,10.757,11.864c4.543,2.908,9.424,4.361,14.639,4.361c5.216,0,10.085-1.443,14.609-4.332   c4.524-2.89,8.1-6.844,10.728-11.865C630.571,379.939,631.885,374.579,631.885,368.88z"/>
	<path d="M735.426,368.851c0,7.786-1.729,14.798-5.182,21.034c-3.455,6.237-8.244,11.099-14.363,14.585   c-6.119,3.486-12.99,5.229-20.609,5.229c-7.581,0-14.451-1.742-20.61-5.229s-10.976-8.367-14.45-14.643S655,376.56,655,368.851   c0-7.67,1.727-14.613,5.182-20.831c3.454-6.217,8.271-11.078,14.45-14.584s13.06-5.259,20.64-5.259   c5.804,0,11.144,0.988,16.02,2.963c4.876,1.977,9.14,4.814,12.792,8.513c3.652,3.7,6.455,8.039,8.41,13.016   C734.447,357.646,735.426,363.04,735.426,368.851z M724.52,368.88c0-5.66-1.313-10.991-3.939-15.993   c-2.629-5.001-6.205-8.946-10.728-11.835c-4.525-2.889-9.394-4.334-14.61-4.334c-5.215,0-10.096,1.445-14.639,4.334   c-4.544,2.889-8.13,6.834-10.757,11.835c-2.628,5.002-3.941,10.333-3.941,15.993c0,5.699,1.313,11.05,3.941,16.052   c2.627,5.001,6.213,8.956,10.757,11.864c4.543,2.908,9.424,4.361,14.639,4.361c5.216,0,10.084-1.443,14.61-4.332   c4.523-2.89,8.099-6.844,10.728-11.865C723.207,379.939,724.52,374.579,724.52,368.88z"/>
	<path d="M800.502,408.13h-45.756v-78.559h9.957v70.365h35.799V408.13z"/>
</g>
<g>
	<path d="M1203.302,405.169c-1.659,0.619-3.616,1.259-5.868,1.916c-5.854,1.743-12.576,2.614-20.17,2.614   c-7.83,0-15.028-1.781-21.593-5.346c-6.565-3.563-11.737-8.502-15.513-14.816c-3.778-6.313-5.666-13.248-5.666-20.802   c0-7.592,1.838-14.478,5.516-20.656s8.76-11.021,15.245-14.526s13.702-5.259,21.651-5.259c6.485,0,12.041,0.604,16.669,1.813   c2.769,0.74,6.011,2.125,9.729,4.152l-3.794,8.096c-1.105-0.581-2.528-1.279-4.267-2.095c-2.214-0.968-4.831-1.732-7.853-2.293   c-3.023-0.562-6.174-0.842-9.453-0.842c-5.611,0-10.373,0.794-14.284,2.381s-7.408,4.121-10.49,7.604   c-1.659,1.896-3.082,3.986-4.267,6.27c-1.186,2.283-2.085,4.635-2.697,7.054c-0.613,2.419-0.918,4.963-0.918,7.634   c0,6.192,1.49,11.785,4.475,16.777c2.982,4.993,7.121,8.911,12.416,11.756c5.294,2.845,11.261,4.266,17.898,4.266   c3.438,0,7.862-0.561,13.276-1.683v-26.124h9.957V405.169z"/>
	<path d="M1273.771,408.131h-46.11v-78.559h45.044v8.309h-35.087v26.09h29.041v8.309h-29.041v27.658h36.153V408.131z"/>
	<path d="M1358.76,408.828h-11.498l-40.42-61.243c-0.08-0.154-0.267-0.465-0.563-0.93c-0.297-0.465-0.643-1.084-1.037-1.859   c-0.594-1.007-0.91-1.588-0.949-1.743c-0.436-0.697-0.85-1.686-1.244-2.963v68.041h-9.957v-78.559h12.979l39.71,59.849   c0.236,0.349,0.592,0.987,1.066,1.917c0.671,1.512,1.164,2.712,1.481,3.604c0.039,0.077,0.108,0.232,0.208,0.465   c0.098,0.232,0.187,0.465,0.266,0.697v-66.531h9.957V408.828z"/>
	<path d="M1436.281,337.881h-26.67v70.25h-9.957v-70.25h-26.729v-8.309h63.356V337.881z"/>
</g>
<g>
	<path d="M29.887,474.276v7.884H0.913v-2.895h6.129v-30.012H0.913v-3.123h18.449v3.123H13.25v29.783h13.691v-4.761H29.887z"/>
	<path d="M54.603,479.266v2.895H36.135v-2.895h6.129v-30.012h-6.129v-3.123h18.467v3.123h-6.129v30.012H54.603z"/>
	<path d="M65.468,482.16v-2.895h6.129v-30.24h-6.129v-2.895h19.363c3.612,0,6.932,0.8,9.96,2.399c3.027,1.6,5.411,3.784,7.151,6.551   c1.74,2.768,2.61,5.789,2.61,9.064c0,3.403-0.863,6.475-2.589,9.217c-1.727,2.742-4.084,4.894-7.072,6.456   c-2.988,1.561-6.341,2.342-10.06,2.342H65.468z M77.806,479.037h6.368c2.468,0,4.729-0.647,6.786-1.942   c2.056-1.295,3.667-3.079,4.835-5.351c1.167-2.272,1.751-4.78,1.751-7.522s-0.583-5.262-1.751-7.56   c-1.168-2.299-2.766-4.107-4.796-5.428s-4.278-1.98-6.746-1.98h-6.448V479.037z"/>
	<path d="M164.41,449.254l-14.606,33.858h-1.95l-14.686-33.858h-3.98v-3.123h15.801v3.123h-5.134l10.547,24.108l10.268-24.108   h-4.656v-3.123h11.82v3.123H164.41z"/>
	<path d="M207.434,479.266v2.895h-13.691v-2.895h3.582l-3.662-8.493h-14.845l-3.9,8.493h4.656v2.895h-11.422v-2.895h3.104   l15.641-34.315h2.109l15.005,34.315H207.434z M180.211,467.726h12.139l-5.93-13.711L180.211,467.726z"/>
	<path d="M250.218,449.254v33.516h-2.428l-23.641-26.508v23.004h6.169v2.895h-16.397v-2.895h6.089v-27.993l-1.632-2.019h-5.691   v-3.123h10.539l22.933,25.403v-22.28h-6.208v-3.123h16.397v3.123H250.218z"/>
	<path d="M286.595,482.16v-2.895h6.129v-30.24h-6.129v-2.895h19.363c3.612,0,6.932,0.8,9.96,2.399   c3.027,1.6,5.411,3.784,7.151,6.551c1.74,2.768,2.61,5.789,2.61,9.064c0,3.403-0.863,6.475-2.589,9.217   c-1.727,2.742-4.084,4.894-7.072,6.456c-2.988,1.561-6.341,2.342-10.06,2.342H286.595z M298.933,479.037h6.368   c2.468,0,4.729-0.647,6.786-1.942c2.056-1.295,3.667-3.079,4.835-5.351c1.167-2.272,1.751-4.78,1.751-7.522   s-0.583-5.262-1.751-7.56c-1.168-2.299-2.766-4.107-4.796-5.428s-4.278-1.98-6.746-1.98h-6.448V479.037z"/>
	<path d="M364.404,474.924v7.236h-29.213v-2.895h6.129v-30.24h-6.129v-2.895h25.629v-1.562h3.027v8.722h-2.945v-4.037h-13.373   v13.025h10.428v-3.771l3.025-0.076v10.854h-3.025v-3.885h-10.428v13.635h13.851v-4.113H364.404z"/>
	<path d="M429.039,479.266v2.895h-13.691v-2.895h3.582l-3.662-8.493h-14.845l-3.9,8.493h4.656v2.895h-11.422v-2.895h3.104   l15.641-34.315h2.109l15.005,34.315H429.039z M401.816,467.726h12.139l-5.93-13.711L401.816,467.726z"/>
	<path d="M437.516,480.572v2.045h-3.025v-9.788h3.025v4.078c1.645,0.913,3.104,1.566,4.378,1.959c1.273,0.394,2.587,0.59,3.94,0.59   c1.379,0,2.593-0.222,3.642-0.666c1.048-0.444,1.871-1.059,2.468-1.845s0.896-1.687,0.896-2.701c0-1.496-0.65-2.84-1.95-4.032   c-1.3-1.192-3.635-2.601-7.005-4.224c-3.582-1.725-6.083-3.366-7.502-4.926c-1.42-1.561-2.129-3.506-2.129-5.84   c0-1.826,0.517-3.507,1.552-5.041c1.035-1.534,2.441-2.752,4.219-3.652c1.777-0.9,3.741-1.351,5.89-1.351   c2.627,0,5.094,0.597,7.403,1.79v-1.942h3.025v9.369h-3.025v-3.888c-2.653-1.369-4.935-2.054-6.846-2.054   c-1.937,0-3.482,0.476-4.637,1.427c-1.154,0.951-1.731,2.213-1.731,3.785c0,0.988,0.265,1.813,0.796,2.472   c0.53,0.659,1.499,1.396,2.905,2.207c3.051,1.698,4.975,2.765,5.771,3.194c3.502,1.855,5.871,3.564,7.104,5.127   c1.233,1.563,1.851,3.627,1.851,6.193c0,1.932-0.511,3.678-1.532,5.241c-1.022,1.563-2.441,2.802-4.259,3.716   c-1.818,0.914-3.828,1.372-6.03,1.372C443.791,483.188,440.726,482.316,437.516,480.572z"/>
	<path d="M470.59,480.572v2.045h-3.025v-9.788h3.025v4.078c1.645,0.913,3.104,1.566,4.378,1.959c1.273,0.394,2.587,0.59,3.94,0.59   c1.379,0,2.593-0.222,3.642-0.666c1.048-0.444,1.871-1.059,2.468-1.845s0.896-1.687,0.896-2.701c0-1.496-0.65-2.84-1.95-4.032   c-1.3-1.192-3.635-2.601-7.005-4.224c-3.582-1.725-6.083-3.366-7.502-4.926c-1.42-1.561-2.129-3.506-2.129-5.84   c0-1.826,0.517-3.507,1.552-5.041c1.035-1.534,2.441-2.752,4.219-3.652c1.777-0.9,3.741-1.351,5.89-1.351   c2.627,0,5.094,0.597,7.403,1.79v-1.942h3.025v9.369h-3.025v-3.888c-2.653-1.369-4.935-2.054-6.846-2.054   c-1.937,0-3.482,0.476-4.637,1.427c-1.154,0.951-1.731,2.213-1.731,3.785c0,0.988,0.265,1.813,0.796,2.472   c0.53,0.659,1.499,1.396,2.905,2.207c3.051,1.698,4.975,2.765,5.771,3.194c3.502,1.855,5.871,3.564,7.104,5.127   c1.233,1.563,1.851,3.627,1.851,6.193c0,1.932-0.511,3.678-1.532,5.241c-1.022,1.563-2.441,2.802-4.259,3.716   c-1.818,0.914-3.828,1.372-6.03,1.372C476.864,483.188,473.8,482.316,470.59,480.572z"/>
	<path d="M518.807,483.188c-2.55,0-5-0.509-7.351-1.523s-4.449-2.431-6.295-4.247c-1.846-1.814-3.274-3.859-4.283-6.131   c-1.009-2.272-1.513-4.679-1.513-7.218c0-3.326,0.889-6.437,2.669-9.331s4.163-5.211,7.151-6.951   c2.988-1.738,6.195-2.608,9.622-2.608c3.32,0,6.467,0.87,9.442,2.608c2.975,1.74,5.352,4.07,7.132,6.989   c1.78,2.92,2.669,6.018,2.669,9.293c0,3.301-0.884,6.437-2.65,9.407s-4.137,5.332-7.111,7.084   C525.314,482.313,522.153,483.188,518.807,483.188z M518.748,448.454c-3.396,0-6.295,1.518-8.696,4.552   c-2.402,3.033-3.602,6.722-3.602,11.063c0,4.394,1.194,8.132,3.582,11.216c2.388,3.086,5.293,4.628,8.716,4.628   c2.255,0,4.331-0.698,6.229-2.095c1.897-1.396,3.396-3.301,4.498-5.713c1.101-2.412,1.651-5.065,1.651-7.96   c0-2.133-0.312-4.151-0.935-6.056c-0.624-1.904-1.512-3.586-2.667-5.047c-1.154-1.459-2.475-2.59-3.96-3.389   C522.077,448.854,520.472,448.454,518.748,448.454z"/>
	<path d="M580.397,473.362v7.236c-2.285,0.939-4.383,1.605-6.296,1.999c-1.913,0.395-4.144,0.591-6.694,0.591   c-4.038,0-7.678-0.819-10.918-2.456c-3.241-1.639-5.771-3.904-7.591-6.799c-1.819-2.895-2.729-6.132-2.729-9.712   c0-3.656,0.916-6.944,2.749-9.864c1.833-2.92,4.403-5.192,7.711-6.817c3.308-1.624,7.034-2.438,11.178-2.438   c1.78,0,3.375,0.178,4.782,0.533c1.408,0.356,3.029,0.966,4.862,1.828v-2.438h2.945v9.293h-2.945v-2.666   c-1.698-1.193-3.303-2.038-4.815-2.532c-1.513-0.496-3.171-0.743-4.975-0.743c-2.096,0-4.014,0.375-5.751,1.124   c-1.738,0.748-3.257,1.814-4.557,3.199c-1.3,1.384-2.309,3.021-3.025,4.912c-0.716,1.893-1.075,3.892-1.075,5.999   c0,2.209,0.384,4.31,1.154,6.304c0.77,1.993,1.864,3.751,3.284,5.274c1.419,1.523,3.09,2.691,5.015,3.504   c1.923,0.813,3.96,1.219,6.109,1.219c1.379,0,2.667-0.19,3.86-0.571s2.759-1.053,4.696-2.019l0.08-3.961H580.397z"/>
	<path d="M607.7,479.266v2.895h-18.467v-2.895h6.129v-30.012h-6.129v-3.123H607.7v3.123h-6.129v30.012H607.7z"/>
	<path d="M652.594,479.266v2.895h-13.691v-2.895h3.582l-3.662-8.493h-14.845l-3.9,8.493h4.656v2.895h-11.422v-2.895h3.104   l15.641-34.315h2.109l15.005,34.315H652.594z M625.372,467.726h12.139l-5.93-13.711L625.372,467.726z"/>
	<path d="M680.892,479.266v2.895h-20.076v-2.895h6.902v-30.012h-11.86v4.342h-2.945v-9.026h2.945v1.562h29.969v-1.562h3.025v9.026   h-3.025v-4.342h-11.9v30.012H680.892z"/>
	<path d="M712.812,479.266v2.895h-18.467v-2.895h6.129v-30.012h-6.129v-3.123h18.467v3.123h-6.129v30.012H712.812z"/>
	<path d="M752.89,474.924v7.236h-29.213v-2.895h6.129v-30.24h-6.129v-2.895h25.629v-1.562h3.026v8.722h-2.945v-4.037h-13.372v13.025   h10.428v-3.771l3.024-0.076v10.854h-3.024v-3.885h-10.428v13.635h13.85v-4.113H752.89z"/>
	<path d="M825.206,446.131v3.123h-6.129v19.729c0,2.742-0.657,5.199-1.971,7.369c-1.313,2.172-3.164,3.854-5.552,5.047   s-5.095,1.79-8.119,1.79c-2.84,0-5.413-0.552-7.722-1.657c-2.308-1.104-4.112-2.627-5.412-4.57c-1.301-1.941-1.95-4.106-1.95-6.493   v-21.214h-6.209v-3.123h18.507v3.123h-6.169v19.552c0,3.196,0.922,5.782,2.767,7.761c1.844,1.978,4.238,2.966,7.184,2.966   c3.051,0,5.565-1.015,7.542-3.042c1.977-2.029,2.965-4.616,2.965-7.761v-19.476h-6.129v-3.123H825.206z"/>
	<path d="M871.255,449.254v33.516h-2.428l-23.642-26.508v23.004h6.169v2.895h-16.397v-2.895h6.09v-27.993l-1.632-2.019h-5.691   v-3.123h10.538l22.934,25.403v-22.28h-6.209v-3.123h16.397v3.123H871.255z"/>
	<path d="M905.721,479.266v2.895h-18.467v-2.895h6.129v-30.012h-6.129v-3.123h18.467v3.123h-6.129v30.012H905.721z"/>
	<path d="M946.555,449.254l-14.606,33.858h-1.95l-14.686-33.858h-3.98v-3.123h15.801v3.123h-5.135l10.547,24.108l10.269-24.108   h-4.656v-3.123h11.82v3.123H946.555z"/>
	<path d="M984.763,474.924v7.236H955.55v-2.895h6.129v-30.24h-6.129v-2.895h25.629v-1.562h3.026v8.722h-2.945v-4.037h-13.372v13.025   h10.428v-3.771l3.024-0.076v10.854h-3.024v-3.885h-10.428v13.635h13.85v-4.113H984.763z"/>
	<path d="M1032.283,479.266v2.895h-5.93c-1.274,0-2.223-0.07-2.846-0.209c-0.624-0.14-1.182-0.432-1.672-0.877   c-0.491-0.443-1.081-1.174-1.771-2.189l-8.716-12.568h-4.02v12.949h6.129v2.895h-18.467v-2.895h6.129v-30.012h-6.129v-3.123h19.287   c3.932,0,6.94,0.818,9.025,2.457c2.086,1.637,3.129,4.043,3.129,7.217c0,2.615-0.783,4.813-2.348,6.589   c-1.566,1.777-3.688,2.907-6.368,3.39l7.562,10.588c1.354,1.93,2.932,2.895,4.736,2.895H1032.283z M1007.329,449.254v13.939h5.811   c1.963,0,3.528-0.66,4.696-1.98c1.167-1.32,1.751-3.047,1.751-5.18c0-2.209-0.563-3.891-1.691-5.047   c-1.128-1.154-2.74-1.732-4.836-1.732H1007.329z"/>
	<path d="M1041.517,480.572v2.045h-3.025v-9.788h3.025v4.078c1.645,0.913,3.104,1.566,4.378,1.959c1.273,0.394,2.587,0.59,3.94,0.59   c1.379,0,2.593-0.222,3.642-0.666c1.048-0.444,1.87-1.059,2.467-1.845c0.598-0.786,0.896-1.687,0.896-2.701   c0-1.496-0.65-2.84-1.95-4.032s-3.635-2.601-7.004-4.224c-3.582-1.725-6.084-3.366-7.503-4.926c-1.42-1.561-2.129-3.506-2.129-5.84   c0-1.826,0.518-3.507,1.552-5.041c1.035-1.534,2.441-2.752,4.219-3.652s3.741-1.351,5.891-1.351c2.627,0,5.095,0.597,7.403,1.79   v-1.942h3.024v9.369h-3.024v-3.888c-2.654-1.369-4.936-2.054-6.846-2.054c-1.938,0-3.482,0.476-4.637,1.427   s-1.731,2.213-1.731,3.785c0,0.988,0.265,1.813,0.796,2.472c0.53,0.659,1.499,1.396,2.905,2.207   c3.051,1.698,4.975,2.765,5.771,3.194c3.502,1.855,5.87,3.564,7.104,5.127c1.234,1.563,1.851,3.627,1.851,6.193   c0,1.932-0.511,3.678-1.532,5.241c-1.021,1.563-2.441,2.802-4.258,3.716c-1.818,0.914-3.828,1.372-6.03,1.372   C1047.791,483.188,1044.727,482.316,1041.517,480.572z"/>
	<path d="M1090.151,479.266v2.895h-18.467v-2.895h6.129v-30.012h-6.129v-3.123h18.467v3.123h-6.129v30.012H1090.151z"/>
	<path d="M1123.742,479.266v2.895h-20.076v-2.895h6.902v-30.012h-11.86v4.342h-2.945v-9.026h2.945v1.562h29.969v-1.562h3.025v9.026   h-3.025v-4.342h-11.899v30.012H1123.742z"/>
	<path d="M1166.407,474.924v7.236h-29.213v-2.895h6.129v-30.24h-6.129v-2.895h25.629v-1.562h3.026v8.722h-2.945v-4.037h-13.372   v13.025h10.428v-3.771l3.024-0.076v10.854h-3.024v-3.885h-10.428v13.635h13.85v-4.113H1166.407z"/>
	<path d="M1195.103,479.266v2.895h-18.467v-2.895h6.129v-30.012h-6.129v-3.123h18.467v3.123h-6.129v30.012H1195.103z"/>
	<path d="M1228.693,479.266v2.895h-20.076v-2.895h6.902v-30.012h-11.86v4.342h-2.945v-9.026h2.945v1.562h29.969v-1.562h3.025v9.026   h-3.025v-4.342h-11.899v30.012H1228.693z"/>
	<path d="M1296.233,470.239v10.359c-1.833,0.635-3.553,1.149-5.16,1.542c-1.606,0.395-3.088,0.667-4.442,0.819   s-2.775,0.229-4.263,0.229c-4.038,0-7.678-0.819-10.918-2.456c-3.241-1.639-5.771-3.904-7.591-6.799s-2.729-6.132-2.729-9.712   s0.923-6.817,2.77-9.712s4.391-5.174,7.632-6.836c3.241-1.663,6.801-2.495,10.68-2.495c1.594,0,3.115,0.14,4.563,0.419   c1.448,0.279,3.354,0.787,5.719,1.523v-2.095h3.025v9.293h-3.025v-3.58c-1.751-0.862-3.377-1.498-4.875-1.904   c-1.5-0.405-3.005-0.609-4.518-0.609c-4.272,0-7.82,1.454-10.646,4.36c-2.826,2.908-4.238,6.558-4.238,10.95   c0,3.148,0.702,5.985,2.109,8.513c1.405,2.526,3.362,4.494,5.87,5.902c2.508,1.41,5.354,2.114,8.537,2.114   c1.459,0,3.25-0.267,5.373-0.8v-9.026h-6.169v-2.895h18.507v2.895H1296.233z"/>
	<path d="M1339.735,474.924v7.236h-29.213v-2.895h6.129v-30.24h-6.129v-2.895h25.629v-1.562h3.026v8.722h-2.945v-4.037h-13.372   v13.025h10.428v-3.771l3.024-0.076v10.854h-3.024v-3.885h-10.428v13.635h13.85v-4.113H1339.735z"/>
	<path d="M1387.177,449.254v33.516h-2.428l-23.642-26.508v23.004h6.169v2.895h-16.397v-2.895h6.09v-27.993l-1.632-2.019h-5.691   v-3.123h10.538l22.934,25.403v-22.28h-6.209v-3.123h16.397v3.123H1387.177z"/>
	<path d="M1425.901,479.266v2.895h-20.076v-2.895h6.902v-30.012h-11.86v4.342h-2.945v-9.026h2.945v1.562h29.969v-1.562h3.025v9.026   h-3.025v-4.342h-11.899v30.012H1425.901z"/>
</g>
<g>
	<path fill-rule="evenodd" clip-rule="evenodd" fill="#00569C" d="M903.5,0c36.25,0,72.5,0,108.75,0   c-9.256,56.744-18.334,113.666-27.75,170.25C952.455,158.045,921.875,144.375,881,141C887.663,93.163,895.966,46.966,903.5,0z"/>
	<path fill-rule="evenodd" clip-rule="evenodd" fill="#AEC6DB" d="M1033.25,0c36.5,0,73,0,109.5,0   c-9.86,62.139-20.204,123.796-30,186c-31.882,14.756-81.07,6.881-108-6.75C1013.862,119.111,1024.575,60.576,1033.25,0z"/>
	<path fill-rule="evenodd" clip-rule="evenodd" d="M1146.5,186.75c1.556,3.445,3.788,6.211,5.25,9.75   c-110.416,77.81-209.965-60.987-327-21c-0.84-4.41-4.068-6.432-4.5-11.25C937.027,120.034,1036.212,258.557,1146.5,186.75z"/>
	<path fill-rule="evenodd" clip-rule="evenodd" fill="#00569C" d="M874.25,183c40.802,2.949,72.872,14.628,103.5,27.75   c-10.352,66.399-20.957,132.542-32.25,198c-36,0-72,0-108,0C849.071,332.82,861.133,257.384,874.25,183z"/>
	<path fill-rule="evenodd" clip-rule="evenodd" fill="#AEC6DB" d="M1105.25,228c-7.604,59.396-19.177,121.322-29.25,180.75   c-36,0-72,0-108,0c8.439-61.813,20.396-126.602,30-189.75C1027.446,230.58,1071.47,241.666,1105.25,228z"/>
</g>
</svg>